<svg version="1.2" xmlns="http://www.w3.org/2000/svg" viewBox="0 0 1280 1130" width="1280" height="1130">
	<title>std-svg</title>
	<style>
		.s0 { fill: #00995d } 
	</style>
	<g id="Layer">
		<path id="Layer" class="s0" d="m622.3 6.2c-1.3 0.6-3.6 3.2-5.2 5.7-1.6 2.5-51 87.8-109.9 189.6-121.8 210.7-269.5 466.1-407.8 705-76.6 132.5-94.9 164.8-95.2 168.1-0.3 3.5 0.1 4.7 2.6 7.5l3 3.4h617.2 617.2l2.9-3.3c5.2-5.8 4.6-7.8-10.4-33.7-7.4-12.7-49.2-84.9-92.9-160.5-225.3-389.6-506.6-875.8-507.8-877.6-2.9-4.7-9-6.5-13.7-4.2z"/>
	</g>
</svg>